<?xml version="1.0" encoding="utf-8"?>
<svg width="343.33118px" height="76.63641px" viewBox="0 0 343.33118 76.63641" version="1.1" xmlns:xlink="http://www.w3.org/1999/xlink" xmlns="http://www.w3.org/2000/svg">
  <defs>
    <path d="M0 0L343.331 0L343.331 76.6364L0 76.6364L0 0Z" id="path_1" />
    <clipPath id="mask_1">
      <use xlink:href="#path_1" />
    </clipPath>
  </defs>
  <g id="Youtube-Logo-(SVG)---Vector69Com">
    <path d="M0 0L343.331 0L343.331 76.6364L0 76.6364L0 0Z" id="Background" fill="#FFFFFF" fill-opacity="0" fill-rule="evenodd" stroke="none" />
    <g clip-path="url(#mask_1)">
      <g id="__x0023_Layer_x0020_1" transform="translate(-0.024486732 0.049049746)">
        <path d="M107.193 11.9675C105.942 7.259 102.215 3.55593 97.506 2.2807C88.9718 0 54.7368 0 54.7368 0C54.7368 0 20.5018 0 11.9675 2.2807C7.259 3.53141 3.55593 7.259 2.2807 11.9675C0 20.5018 0 38.3305 0 38.3305C0 38.3305 0 56.1346 2.2807 64.6934C3.53141 69.4019 7.259 73.105 11.9675 74.3802C20.5018 76.6609 54.7368 76.6609 54.7368 76.6609C54.7368 76.6609 88.9718 76.6609 97.506 74.3802C102.215 73.1295 105.918 69.4019 107.193 64.6934C109.474 56.1592 109.474 38.3305 109.474 38.3305C109.474 38.3305 109.474 20.5263 107.193 11.9675L107.193 11.9675Z" id="Shape" fill="#FF0000" fill-rule="evenodd" stroke="none" />
        <path d="M43.7747 54.7368L72.2222 38.3059L43.7747 21.8996L43.7747 54.7368Z" id="Polygon" fill="#FFFFFF" fill-rule="evenodd" stroke="none" />
        <path d="M158.913 69.7207C156.755 68.2493 155.21 65.9931 154.303 62.9032C153.395 59.8132 152.93 55.7177 152.93 50.6168L152.93 43.6521C152.93 38.4776 153.445 34.3331 154.499 31.1941C155.554 28.0551 157.172 25.7744 159.404 24.352C161.611 22.9051 164.529 22.1939 168.134 22.1939C171.69 22.1939 174.535 22.9296 176.668 24.3765C178.802 25.8479 180.372 28.1286 181.377 31.2186C182.358 34.3331 182.873 38.4531 182.873 43.6276L182.873 50.5923C182.873 55.7177 182.382 59.8132 181.426 62.9277C180.47 66.0422 178.9 68.2984 176.717 69.7453C174.559 71.1922 171.617 71.9033 167.913 71.9033C164.112 71.9033 161.12 71.1676 158.938 69.7207L158.913 69.7207ZM171.053 62.192L171.053 62.192C171.641 60.6225 171.96 58.072 171.96 54.5161L171.96 39.5567C171.96 36.1233 171.666 33.5974 171.053 32.0034C170.439 30.4093 169.385 29.6246 167.889 29.6246C166.418 29.6246 165.388 30.4093 164.799 32.0034C164.186 33.5974 163.892 36.1233 163.892 39.5567L163.892 54.5161C163.892 58.072 164.186 60.6225 164.75 62.192C165.314 63.7615 166.368 64.5463 167.889 64.5463C169.409 64.5463 170.464 63.7615 171.053 62.192L171.053 62.192Z" id="Shape" fill="#FFFFFF" fill-rule="evenodd" stroke="none" />
        <path d="M325.233 50.7394L325.233 53.1673C325.233 56.2573 325.331 58.5625 325.503 60.1075C325.674 61.6525 326.067 62.7806 326.631 63.4672C327.195 64.1784 328.102 64.5217 329.304 64.5217C330.922 64.5217 332.026 63.8841 332.639 62.6334C333.227 61.3827 333.571 59.2982 333.62 56.3799L342.939 56.9194C342.988 57.3363 343.012 57.9004 343.012 58.6361C343.012 63.0748 341.786 66.3855 339.383 68.5927C336.955 70.7753 333.522 71.8788 329.083 71.8788C323.761 71.8788 320.034 70.2112 317.876 66.876C315.742 63.5408 314.663 58.3663 314.663 51.3771L314.663 42.99C314.663 35.78 315.767 30.5319 317.998 27.2213C320.205 23.9106 324.007 22.243 329.402 22.243C333.105 22.243 335.95 22.9296 337.936 24.2784C339.922 25.6272 341.32 27.7608 342.13 30.63C342.939 33.4993 343.356 37.4721 343.356 42.524L343.356 50.7394L325.257 50.7394L325.233 50.7394ZM326.606 30.532L326.606 30.532C326.067 31.2186 325.699 32.3222 325.503 33.8672C325.306 35.4122 325.233 37.7419 325.233 40.881L325.233 44.3388L333.129 44.3388L333.129 40.881C333.129 37.791 333.031 35.4612 332.811 33.8672C332.59 32.2731 332.222 31.1451 331.682 30.5074C331.143 29.8453 330.285 29.5265 329.132 29.5265C327.979 29.5265 327.146 29.8698 326.582 30.5565L326.606 30.532Z" id="Shape" fill="#FFFFFF" fill-rule="evenodd" stroke="none" />
        <path d="M132.599 49.832L120.313 5.44424L131.03 5.44424L135.346 25.5782C136.45 30.5319 137.259 34.7745 137.774 38.2569L138.093 38.2569C138.461 35.7555 139.27 31.5619 140.521 25.6517L144.984 5.44424L155.701 5.44424L143.243 49.832L143.243 71.1431L132.599 71.1431L132.599 49.832L132.599 49.832Z" id="Shape" fill="#FFFFFF" fill-rule="evenodd" stroke="none" />
        <path d="M217.721 23.1258L217.721 71.1186L209.26 71.1186L208.328 65.2574L208.083 65.2574C205.778 69.6962 202.345 71.9033 197.759 71.9033C194.571 71.9033 192.216 70.8488 190.72 68.7643C189.2 66.6798 188.44 63.4182 188.44 58.9794L188.44 23.1258L199.255 23.1258L199.255 58.3663C199.255 60.4998 199.5 62.0448 199.966 62.9522C200.432 63.8596 201.217 64.3255 202.32 64.3255C203.252 64.3255 204.159 64.0313 205.018 63.4672C205.876 62.9032 206.514 62.1674 206.931 61.2846L206.931 23.1503L217.746 23.1503L217.721 23.1258Z" id="Shape" fill="#FFFFFF" fill-rule="evenodd" stroke="none" />
        <path d="M273.144 23.1258L273.144 71.1186L264.684 71.1186L263.752 65.2574L263.507 65.2574C261.201 69.6962 257.768 71.9033 253.182 71.9033C249.994 71.9033 247.64 70.8488 246.144 68.7643C244.623 66.6798 243.863 63.4182 243.863 58.9794L243.863 23.1258L254.678 23.1258L254.678 58.3663C254.678 60.4998 254.923 62.0448 255.389 62.9522C255.855 63.8596 256.64 64.3255 257.743 64.3255C258.675 64.3255 259.583 64.0313 260.441 63.4672C261.299 62.9032 261.937 62.1674 262.354 61.2846L262.354 23.1503L273.169 23.1503L273.144 23.1258Z" id="Shape" fill="#FFFFFF" fill-rule="evenodd" stroke="none" />
        <path d="M247.076 14.1256L236.359 14.1256L236.359 71.1186L225.789 71.1186L225.789 14.1256L215.048 14.1256L215.048 5.44424L247.076 5.44424L247.076 14.1256Z" id="Polygon" fill="#FFFFFF" fill-rule="evenodd" stroke="none" />
        <path d="M308.9 30.8017C308.238 27.7853 307.183 25.5782 305.736 24.2294C304.265 22.8806 302.254 22.1939 299.704 22.1939C297.717 22.1939 295.878 22.7579 294.137 23.886C292.42 25.0141 291.071 26.4855 290.139 28.3003L290.066 28.3003L290.066 3.01641L279.643 3.01641L279.643 71.1431L288.57 71.1431L289.673 66.6062L289.919 66.6062C290.752 68.2248 292.003 69.5 293.671 70.4319C295.338 71.3638 297.202 71.8298 299.238 71.8298C302.892 71.8298 305.589 70.1376 307.306 66.7779C309.023 63.4182 309.881 58.1456 309.881 51.0092L309.881 43.4069C309.881 38.0362 309.562 33.8181 308.9 30.8017L308.9 30.8017ZM298.992 50.3716L298.992 50.3716C298.992 53.8785 298.845 56.6006 298.551 58.587C298.257 60.5734 297.791 61.9713 297.104 62.8051C296.417 63.6389 295.51 64.0558 294.357 64.0558C293.475 64.0558 292.641 63.8596 291.881 63.4182C291.12 63.0013 290.507 62.3636 290.041 61.5298L290.041 34.2841C290.409 32.9843 291.022 31.9053 291.93 31.0715C292.812 30.2377 293.793 29.8208 294.823 29.8208C295.927 29.8208 296.761 30.2622 297.374 31.1205C297.962 31.9788 298.404 33.4257 298.625 35.4612C298.87 37.4967 298.968 40.3904 298.968 44.1426L298.968 50.3225L298.992 50.3716Z" id="Shape" fill="#FFFFFF" fill-rule="evenodd" stroke="none" />
      </g>
    </g>
  </g>
</svg>